<?xml version="1.0" encoding="UTF-8"?>
<svg id="Layer_1" data-name="Layer 1" xmlns="http://www.w3.org/2000/svg" viewBox="0 0 1500 1500">
  <defs>
    <style>
      .cls-1 {
        fill: #212121;
      }

      .cls-1, .cls-2, .cls-3, .cls-4, .cls-5, .cls-6 {
        stroke-miterlimit: 10;
      }

      .cls-1, .cls-2, .cls-3, .cls-5 {
        stroke: #000;
      }

      .cls-2 {
        fill: #424242;
      }

      .cls-3 {
        fill: #fff;
      }

      .cls-4, .cls-5 {
        fill: #323232;
      }

      .cls-4, .cls-6 {
        stroke: #231f20;
        stroke-linecap: round;
      }

      .cls-6 {
        fill: #e6e6e6;
      }
    </style>
  </defs>
  <polygon class="cls-2" points="858.45 488.96 895.05 425.57 835.53 425.57 798.93 488.96 858.45 488.96"/>
  <polygon class="cls-5" points="1106.19 425.57 1142.79 488.96 1302.9 488.96 1302.9 1216.79 279.25 1216.79 279.25 488.96 347.95 488.96 311.35 425.57 190.03 425.57 190.03 1289.57 1385.07 1289.57 1385.07 425.57 1106.19 425.57"/>
  <polygon class="cls-3" points="718.86 730.75 858.45 488.96 798.93 488.96 573.44 879.52 347.95 488.96 279.25 488.96 279.25 1216.79 1302.9 1216.79 1302.9 488.96 1142.79 488.96 1282.38 730.75 718.86 730.75"/>
  <polygon class="cls-1" points="878.74 350.72 268.14 350.72 311.35 425.57 835.53 425.57 878.74 350.72"/>
  <polygon class="cls-6" points="798.93 488.96 835.53 425.57 311.35 425.57 347.95 488.96 798.93 488.96"/>
  <polygon class="cls-1" points="798.93 488.96 347.95 488.96 573.44 879.52 798.93 488.96"/>
  <polygon class="cls-4" points="1000.62 242.72 895.05 425.57 1106.19 425.57 1000.62 242.72"/>
  <polygon class="cls-6" points="1142.79 488.96 1106.19 425.57 895.05 425.57 858.45 488.96 1142.79 488.96"/>
  <polygon class="cls-4" points="718.86 730.75 1282.38 730.75 1142.79 488.96 858.45 488.96 718.86 730.75"/>
</svg>