<?xml version="1.0" encoding="UTF-8"?>
<svg id="Layer_1" data-name="Layer 1" xmlns="http://www.w3.org/2000/svg" viewBox="0 0 1500 1500">
  <defs>
    <style>
      .cls-1 {
        fill: #343434;
      }

      .cls-1, .cls-2, .cls-3 {
        stroke: #231f20;
        stroke-linecap: round;
        stroke-miterlimit: 10;
      }

      .cls-2 {
        fill: #303030;
      }

      .cls-3 {
        fill: #212121;
      }
    </style>
  </defs>
  <path class="cls-3" d="M161.88,138.46v1224.39h1224.39V138.46H161.88ZM1309.97,1286.54H246.4V194.81h1063.57v1091.74Z"/>
  <path class="cls-3" d="M462.4,624.46v178.55c0-8.17,0,.22,0,25.51v13.94s0,.64,0,3.36c0-14.57,0-10.35,0-3.81,0,7.75,0,11.05,0,10.18,0,17.59,1.73,17.45,4.32,6.32,2.59-7.37,6.04-15.84,9.5-6.32,3.45-16.3,6.91-13.53,9.5-2.15,2.59,8.73,4.32,13.63,4.32,2.15,0-1.7.1,3.85.3-9.59.2-5.38.49-11.18.87-12.1s.86,3.05,1.41,17.21c.84-.55,1.86-3.19,3.06-2.39,1.2-2.52,2.57-6.49,4.09-10,1.52-2.1,3.2-5.33,5-8.76s3.75-7.06,5.8-9.95c2.05-3.98,4.22-7.85,6.49-11.72s4.62-7.75,7.06-11.74c2.43-7.22,4.95-5.42,7.51-18.17,2.57-8.82,5.19-10.34,7.86-8.46,2.66,4.36,5.36-8.4,8.08-14,2.72-5.25,5.46.23,8.2-14.2,5.48-11.97,10.96-19.3,16.28-28.2,5.33-18.94,10.5-16.3,15.37-26.62,4.87,1.82,9.44-16.36,13.54-23.46,4.11-12.93,7.76-8.68,10.8-18.71,3.04-12.7,5.48-13.55,7.15-12.39,1.67-8.42,2.59,11.04,2.59-4.48,0-1.43-3.25,4.53-8.81,0-5.57,8.44-13.45-5.41-22.73,0-9.28,60.02-19.95,18.05-31.08,0-11.13,28.89-22.73-.49-33.86,0-11.13-2.33-21.8.29-31.08,0h-31.54Z"/>
  <path class="cls-3" d="M1089.27,852.2c0-25.07,0,5.89,0-6.38,0,.03,0-1.19,0-3.98v-13.33c0-25.65,0-26.62,0-20.16,0,.76,0-4.82,0-8.47v3.13c0-.46,0,.32,0-1.08v-23.9c0,5.45,0-1.45,0-5.99,0,3.97,0,3.4,0-8.28,0-14.02,0,11.37,0-5.38,0-20.9,0-9.56,0-3.02,0,8.63,0,21.12,0,5.25,0-4.51,0-30.04,0-13.74,0-7.57,0-28.64,0-8.53,0,2.63,0-5.23,0-6.24,0-1.87,0-12.13,0-9.08,0,9.33,0,3.54,0-6.39,0,4.51,0-16.82,0-11.99v-80.16h-162.64s3.65,6.33,9.74,16.87l10.8,18.71c2.05,5.53,4.22,7.42,6.49,9.91s4.62,5.6,7.06,13.54c2.43,2.96,4.95,5.42,7.51,13.12,2.57,6.7,5.19-.96,7.86,13.5,2.66,5.52,5.36-10.64,8.08,12.37,2.72-.94,5.46,21.5,8.2,15.84,2.74-1.18,5.48,14.15,8.2,14.97,2.72,7.46,5.42-5.92,8.08,13.23,5.33,11.96,10.5,18.19,15.37,26.62,4.87,8.43,9.44,15.51,13.54,23.46,4.11,17.74,7.76,16.6,10.8,18.71,3.04,11.7,5.48,15.67,7.15,12.39,1.67,29.59,2.59,1.21,2.59,4.48,0-5.5,7.79,3.98,15.58,0,7.79-15.86,15.58-11.76,15.58,0Z"/>
  <path class="cls-1" d="M774.08,360.22l-20.62,35.72c-4.17,7.22-8.82,15.27-13.82,23.93-5,13.63-10.35,8.04-15.9,27.54-5.56,8.07-11.32,2.95-17.15,29.71-5.83,15.78-11.74,3.57-17.57,30.43-5.83,10.1-11.6,20.09-17.15,29.71-27.78,48.11-50.34,87.2-50.34,87.2h41.25c8.33,0,17.64-8.21,27.64,0,10,4.14,20.69,16.74,31.8,0,11.11,33.18,22.64,5.19,34.3,0,5.83,21.4,11.7-2.18,17.57,0,5.87-13.82,11.74-2.67,17.57,0,5.83.06,11.63-.31,17.36-.52s11.39-.23,16.94.52c11.11,3,21.8-9.8,31.8,0,10,8.26,19.3.75,27.64,0,8.33,4.62,15.69,2.24,21.8,0h19.44l-9.72-16.84c-3.06-5.29-6.74-13.07-10.9-18.88-4.17-6.83-8.82-12.76-13.82-23.93-2.5-3.97-5.09-8.45-7.74-13.14-1.33-3-2.67-3.87-4.03-5.36-1.36-6.39-2.74-.93-4.13-9.04-2.47-10.71-4.98-5.62-7.52-15.52-2.54,4.68-5.11-18.82-7.69-10.83-2.58-30.81-5.19-37.74-7.79-15.34-2.61-26.08-5.22-1.86-7.82-11.7-2.6,1.25-5.2,8.97-7.77-11.34-2.58-11.96-5.13-13.93-7.66-15.38l-7.46-12.93-7.2-12.47c-23.47-40.65-41.3-71.54-41.3-71.54Z"/>
  <path class="cls-2" d="M1129.99,976.69l-3.98-6.9c-2.51,1.81-6.08-5.21-10.27-17.78-2.1,5.46-4.35-2.55-6.71-11.61-2.36,19.09-4.82-3.46-7.33-12.7-2.51-.63-5.08,2.17-7.65-13.72-2.57-7.06-5.13-29.11-7.65-12.78-2.51-30.28-4.98-11.31-7.33-17.34-2.36-6.06-4.61-10.39-6.71-6.98-4.19-14.83-7.75-14.49-10.27-17.78-2.51,8.71-3.98,4.7-3.98-6.9,0-1.73-3.06-16.82-8.72,0-5.66-3.83-13.93,1.07-24.36,0-3.48-2.15-7.19,1.79-11.13,2.68s-8.1.89-12.47-2.68c-8.74-6.43-18.3,12.27-28.56,0-10.26,6.15-21.21-19.66-32.73,0-11.51,9.33-23.59,7.23-36.09,0h-33.72c-11.51-1.29-23.25-5.79-35.15,0-5.41-6.3-10.85,1.87-16.31,0-5.46-16.95-10.95-8.26-16.44,0-5.5-1.15-11.01,4.24-16.53.78-5.52.69-11.04-.36-16.57-.78-5.52-11.4-11.04-7.19-16.55,0-5.51,1.85-11.01,2.67-16.49,0-5.48,6.14-10.94-.35-16.37,1.06-5.43,1.09-10.84,1.83-16.21-1.06-2.88.25-5.74.41-8.6.54s-5.7.24-8.53.4c-5.66.31-11.27.31-16.82-.94-11.1,21.64-21.94,13.67-32.46,0-10.52,28.63-20.71,5.96-30.49,0-9.78-11.45-19.15,6.75-28.03,0-8.88-3.85-17.26,0-25.07,0h-26.42c-7.8-1.37-14.54-1.77-20.07,0-5.52.87-9.82.85-12.75,0-2.92-1.77-4.46,6.56-4.46,0,0,5.46-1.47,2.28-3.98,6.9-2.51,1.46-6.08,4.06-10.27,17.78-4.19,17.59-9.01,10.46-14.04,24.32-5.03,18.14-10.27-8.24-15.3,26.5-5.03,6.36-9.85,17.06-14.04,24.32l-14.25,24.68h674.94c5.84-1.5,11.06,1.23,15.61,0h21.28Z"/>
</svg>