<?xml version="1.0" encoding="UTF-8"?>
<svg id="Layer_1" data-name="Layer 1" xmlns="http://www.w3.org/2000/svg" viewBox="0 0 1500 1500">
  <defs>
    <style>
      .cls-1 {
        fill: #383838;
      }

      .cls-1, .cls-2, .cls-3 {
        stroke: #231f20;
        stroke-linecap: round;
        stroke-miterlimit: 10;
      }

      .cls-2 {
        fill: #fff;
      }

      .cls-3 {
        fill: #242424;
      }
    </style>
  </defs>
  <path class="cls-3" d="M1083.03,1040.53h116.57v-58.7h-107.11c-1.3,20.15-4.5,39.77-9.45,58.7Z"/>
  <path class="cls-1" d="M781.68,1272.96h0c-172.02,0-311.48-139.45-311.48-311.48v-322.44c0-172.02,139.45-311.48,311.48-311.48h0c141.02,0,260.12,93.72,298.49,222.26h119.42v-82.96c0-118.43-96.01-214.43-214.43-214.43h-391.3c-118.43,0-214.43,96.01-214.43,214.43v694.96c0,118.43,96.01,214.43,214.43,214.43h391.3c118.43,0,214.43-96.01,214.43-214.43v-29.74h-157.3c-55.65,84.83-151.58,140.87-260.61,140.87Z"/>
  <rect class="cls-3" x="1093.16" y="814.35" width="106.43" height="54.78"/>
  <rect class="cls-3" x="1093.16" y="657.83" width="106.43" height="70.43"/>
  <path class="cls-2" d="M601.68,549.83h478.49c-38.37-128.54-157.47-222.26-298.49-222.26h0c-172.02,0-311.48,139.45-311.48,311.48v322.44c0,172.02,139.45,311.48,311.48,311.48h0c109.03,0,204.97-56.04,260.61-140.87h-440.61v-91.57h481.35c4.95-18.92,8.15-38.55,9.45-58.7h-490.8v-112.7h491.48v-54.78h-491.48v-86.09h491.48v-70.43h-491.48v-108Z"/>
  <rect class="cls-3" x="1199.6" y="549.83" width="94.7" height="108"/>
  <path class="cls-2" d="M1093.16,639.05v18.78h106.43v-108h-119.42c8.44,28.27,12.99,58.21,12.99,89.22Z"/>
  <path class="cls-3" d="M1080.17,549.83h-478.49v108h491.48v-18.78c0-31.01-4.55-60.95-12.99-89.22Z"/>
  <rect class="cls-3" x="1199.6" y="728.27" width="94.7" height="86.09"/>
  <rect class="cls-2" x="1093.16" y="728.27" width="106.43" height="86.09"/>
  <rect class="cls-3" x="601.68" y="728.27" width="491.48" height="86.09"/>
  <rect class="cls-3" x="1199.6" y="869.14" width="94.7" height="112.7"/>
  <path class="cls-2" d="M1093.16,961.48c0,6.84-.24,13.62-.68,20.35h107.11v-112.7h-106.43v92.35Z"/>
  <path class="cls-3" d="M601.68,981.83h490.8c.43-6.73.68-13.51.68-20.35v-92.35h-491.48v112.7Z"/>
  <rect class="cls-3" x="1199.6" y="1040.53" width="94.7" height="91.57"/>
  <path class="cls-2" d="M1042.3,1132.09h157.3v-91.57h-116.57c-8.63,32.97-22.52,63.81-40.73,91.57Z"/>
  <path class="cls-3" d="M601.68,1132.09h440.61c18.21-27.76,32.11-58.59,40.73-91.57h-481.35v91.57Z"/>
</svg>