<?xml version="1.0" encoding="UTF-8"?>
<svg id="Layer_1" data-name="Layer 1" xmlns="http://www.w3.org/2000/svg" viewBox="0 0 1500 1500">
  <defs>
    <style>
      .cls-1 {
        fill: #fff;
      }

      .cls-1, .cls-2, .cls-3 {
        stroke: #231f20;
        stroke-linecap: round;
        stroke-miterlimit: 10;
      }

      .cls-2 {
        fill: #464646;
      }

      .cls-3 {
        fill: #828282;
      }
    </style>
  </defs>
  <path class="cls-2" d="M420.12,630.99v79.95c0,2.56-2.08,4.63-4.63,4.63h-112.81c-2.56,0-4.65-2.03-4.65-4.58v-80c0-2.56,2.08-4.64,4.63-4.64h112.83c2.55,0,4.63,2.08,4.63,4.64Z"/>
  <path class="cls-2" d="M1356.9,236.61v223.28c-1.94-.14-3.89-.23-5.87-.23h-103.3v-115.05H420.12v115.05h-122.09v-223.05h1058.87Z"/>
  <path class="cls-2" d="M420.12,861.14v16.04h-119.35c-.92,0-1.83.04-2.74.07v-16.28c1.56.1,3.12.17,4.7.17h117.39Z"/>
  <rect class="cls-2" x="1247.73" y="861.14" width="109.17" height="16.04"/>
  <path class="cls-2" d="M1356.9,626.13v89.44h-109.17v-89.22h103.3c1.98,0,3.93-.09,5.87-.22Z"/>
  <path class="cls-2" d="M420.12,1043.88v89.21h-106.44c-5.37,0-10.61.6-15.65,1.71v-90.99c.91.03,1.82.07,2.74.07h119.35Z"/>
  <rect class="cls-2" x="1247.73" y="1043.88" width="109.17" height="89.21"/>
  <path class="cls-2" d="M1356.9,1278.66v129.52H298.03v-131.23c5.04,1.11,10.28,1.71,15.65,1.71h106.44v20.35h827.61v-20.35h109.17Z"/>
  <rect class="cls-1" x="420.12" y="1043.88" width="827.61" height="89.21"/>
  <rect class="cls-1" x="420.12" y="1278.66" width="827.61" height="20.35"/>
  <rect class="cls-1" x="420.12" y="344.61" width="827.61" height="115.05"/>
  <rect class="cls-1" x="420.12" y="861.14" width="827.61" height="16.04"/>
  <rect class="cls-1" x="420.12" y="626.35" width="827.61" height="89.22"/>
  <path class="cls-3" d="M1411.87,486.06c-13.95-14.9-33.33-24.66-54.97-26.17-1.94-.14-3.89-.23-5.87-.23H289.81c-46.03,0-83.34,37.31-83.34,83.35,0,23.01,9.33,43.85,24.41,58.93s35.92,24.41,58.93,24.41h1061.22c1.98,0,3.93-.09,5.87-.22,43.29-3.02,77.48-39.07,77.48-83.12,0-22.03-8.55-42.06-22.51-56.95ZM1356.9,576.23c-4.27,2.03-9.04,3.17-14.09,3.17H384.9c-9.08,0-17.29-3.68-23.24-9.63-5.95-5.95-9.63-14.17-9.63-23.24,0-18.16,14.72-32.87,32.87-32.87h957.91c5.05,0,9.82,1.14,14.09,3.17,11.1,5.27,18.78,16.59,18.78,29.7s-7.68,24.42-18.78,29.7Z"/>
  <path class="cls-1" d="M1375.68,546.53c0,13.11-7.68,24.42-18.78,29.7-4.27,2.03-9.04,3.17-14.09,3.17H384.9c-9.08,0-17.29-3.68-23.24-9.63-5.95-5.95-9.63-14.17-9.63-23.24,0-18.16,14.72-32.87,32.87-32.87h957.91c5.05,0,9.82,1.14,14.09,3.17,11.1,5.27,18.78,16.59,18.78,29.7Z"/>
  <path class="cls-3" d="M1441.24,736.89c-13.18-13.17-31.37-21.32-51.47-21.32H302.68c-1.56,0-3.11.07-4.65.17-38.01,2.42-68.09,34-68.09,72.61,0,19.31,7.52,36.86,19.79,49.89,12.27,13.02,29.29,21.52,48.3,22.73,1.56.1,3.12.17,4.7.17h1087.04c40.2,0,72.78-32.59,72.78-72.79,0-20.09-8.15-38.29-21.31-51.46ZM1299.86,821.81H333.94c-9.92,0-18.89-4.02-25.39-10.51-6.5-6.5-10.52-15.48-10.52-25.39,0-19.83,16.08-35.91,35.91-35.91h965.92c9.92,0,18.89,4.02,25.39,10.52s10.52,15.48,10.52,25.39c0,19.83-16.08,35.9-35.91,35.9Z"/>
  <path class="cls-1" d="M1335.77,785.91c0,19.83-16.08,35.9-35.91,35.9H333.94c-9.92,0-18.89-4.02-25.39-10.51-6.5-6.5-10.52-15.48-10.52-25.39,0-19.83,16.08-35.91,35.91-35.91h965.92c9.92,0,18.89,4.02,25.39,10.52s10.52,15.48,10.52,25.39Z"/>
  <path class="cls-3" d="M1420.93,901.59c-15.09-15.08-35.93-24.41-58.94-24.41H300.77c-.92,0-1.83.04-2.74.07-44.76,1.45-80.61,38.16-80.61,83.28s35.85,81.83,80.61,83.28c.91.03,1.82.07,2.74.07h1061.22c46.03,0,83.35-37.32,83.35-83.35,0-23.01-9.33-43.85-24.41-58.94ZM1356.9,996.77c-1.03.09-2.07.15-3.13.15H395.86c-9.08,0-17.3-3.68-23.24-9.63-5.95-5.95-9.63-14.17-9.63-23.24,0-18.15,14.71-32.87,32.87-32.87h957.91c1.06,0,2.1.05,3.13.15,16.68,1.58,29.74,15.62,29.74,32.72s-13.06,31.14-29.74,32.72Z"/>
  <path class="cls-1" d="M1386.64,964.05c0,17.1-13.06,31.14-29.74,32.72-1.03.09-2.07.15-3.13.15H395.86c-9.08,0-17.3-3.68-23.24-9.63-5.95-5.95-9.63-14.17-9.63-23.24,0-18.15,14.71-32.87,32.87-32.87h957.91c1.06,0,2.1.05,3.13.15,16.68,1.58,29.74,15.62,29.74,32.72Z"/>
  <path class="cls-3" d="M1452.19,1154.41c-13.17-13.17-31.37-21.32-51.46-21.32H313.68c-5.37,0-10.61.6-15.65,1.71-32.67,7.16-57.13,36.25-57.13,71.08s24.46,63.91,57.13,71.07c5.04,1.11,10.28,1.71,15.65,1.71h1087.05c40.19,0,72.78-32.59,72.78-72.78,0-20.1-8.15-38.3-21.32-51.47ZM1310.82,1239.33H344.89c-9.91,0-18.89-4.02-25.39-10.51-6.49-6.5-10.51-15.48-10.51-25.39,0-19.83,16.07-35.91,35.9-35.91h965.93c9.92,0,18.89,4.02,25.39,10.52s10.52,15.48,10.52,25.39c0,19.83-16.08,35.9-35.91,35.9Z"/>
  <path class="cls-1" d="M1346.73,1203.43c0,19.83-16.08,35.9-35.91,35.9H344.89c-9.91,0-18.89-4.02-25.39-10.51-6.49-6.5-10.51-15.48-10.51-25.39,0-19.83,16.07-35.91,35.9-35.91h965.93c9.92,0,18.89,4.02,25.39,10.52s10.52,15.48,10.52,25.39Z"/>
</svg>