<?xml version="1.0" encoding="UTF-8"?>
<svg id="Layer_1" data-name="Layer 1" xmlns="http://www.w3.org/2000/svg" viewBox="0 0 1500 1500">
  <defs>
    <style>
      .cls-1 {
        fill: #2c2c2c;
      }

      .cls-1, .cls-2, .cls-3, .cls-4, .cls-5, .cls-6, .cls-7, .cls-8, .cls-9, .cls-10, .cls-11, .cls-12 {
        stroke: #231f20;
        stroke-linecap: round;
        stroke-miterlimit: 10;
      }

      .cls-2 {
        fill: #bcbcbc;
      }

      .cls-3 {
        fill: #969696;
      }

      .cls-4 {
        fill: #a9a9a9;
      }

      .cls-5 {
        fill: #fff;
      }

      .cls-6 {
        fill: #020202;
      }

      .cls-7 {
        fill: #7d7d7d;
      }

      .cls-8 {
        fill: #a8a8a8;
      }

      .cls-9 {
        fill: #a5a5a5;
      }

      .cls-10 {
        fill: #b6b6b6;
      }

      .cls-11 {
        fill: #4b4b4b;
      }

      .cls-12 {
        fill: #3e3e3e;
      }
    </style>
  </defs>
  <path class="cls-9" d="M545.94,318.79v116.05c-21.76-11.38-46.52-17.83-72.78-17.83-11.27,0-22.27,1.2-32.87,3.45v-88.76c0-30.47-24.7-55.17-55.17-55.17-2.38,0-4.73.15-7.03.44-.92.12-1.83.26-2.74.42-.9.16-1.8.35-2.69.55-.89.21-1.78.43-2.65.68-.43.13-.87.25-1.3.39-1.73.53-3.42,1.15-5.07,1.85l-13.62,8.27c-.68.56-1.35,1.14-2,1.73-.66.6-1.3,1.21-1.92,1.83-7.8,7.8-13.28,17.92-15.3,29.24-.16.91-.3,1.82-.42,2.74-.11.92-.21,1.85-.28,2.78-.11,1.41-.16,2.82-.16,4.25v177.47c-9.04,19.85-14.08,41.91-14.08,65.14v193.77c-50.24-26.27-84.52-78.87-84.52-139.48v-309.81c0-43.44,17.6-82.77,46.07-111.23,28.47-28.47,67.79-46.08,111.23-46.08,86.88,0,157.3,70.43,157.3,157.31Z"/>
  <path class="cls-2" d="M815.94,180.27v255.52h-28.17v-225h-82.17v422.72c-11.66-6.74-24.27-12.03-37.57-15.62V180.27h147.91Z"/>
  <path class="cls-5" d="M787.77,210.79v225h-35.22v239.28c-12.68-16.8-28.65-30.97-46.95-41.56V210.79h82.17Z"/>
  <path class="cls-6" d="M630.47,574.31v38.2c-1.18-.03-2.35-.05-3.53-.05-14.84,0-29.2,2.06-42.81,5.9-13.61,3.84-26.48,9.48-38.33,16.62.09-2.12.14-4.24.14-6.38v-193.76c50.24,26.26,84.53,78.86,84.53,139.47Z"/>
  <path class="cls-12" d="M545.94,434.84v193.76c0,2.14-.05,4.26-.14,6.38-7.42,4.48-14.43,9.55-20.99,15.15v-62.9c0-30.47-24.7-55.18-55.17-55.18-5.4,0-10.61.78-15.53,2.22-4.93,1.45-9.57,3.57-13.82,6.24v-120.05c10.6-2.25,21.6-3.45,32.87-3.45,26.26,0,51.02,6.45,72.78,17.83Z"/>
  <path class="cls-5" d="M469.78,763.39c-.09,2.11-.14,4.24-.14,6.37v175.51c-30.47,0-55.17-24.7-55.17-55.17v-106.32c19.95-3.29,38.64-10.34,55.31-20.39Z"/>
  <path class="cls-6" d="M524.81,587.23v62.9c-32.25,27.57-53.22,67.94-55.03,113.26-16.67,10.05-35.36,17.1-55.31,20.39v-102.5c15.51-9.76,25.82-27.03,25.82-46.71v-94.06c4.25-2.67,8.89-4.79,13.82-6.24,4.92-1.44,10.13-2.22,15.53-2.22,30.47,0,55.17,24.71,55.17,55.18Z"/>
  <path class="cls-5" d="M440.29,540.51v94.06c0,19.68-10.31,36.95-25.82,46.71v-94.05c0-19.69,10.31-36.95,25.82-46.72Z"/>
  <path class="cls-5" d="M872.29,466.31v344.21c-16.97-10.83-36.15-18.5-56.72-22.17h.37v-322.04h56.35Z"/>
  <path class="cls-8" d="M815.94,466.31v322.04h-.37c-8.28-1.47-16.78-2.29-25.45-2.42v-319.62h25.82Z"/>
  <path class="cls-10" d="M630.47,1140.26v96.58c-1.18.02-2.35.04-3.53.04-86.87,0-157.3-70.43-157.3-157.3v-38.19c1.17.02,2.34.04,3.52.04,35.73,0,68.68-11.92,95.09-31.99v76.11c0,30.47,24.7,55.17,55.17,55.17,2.39,0,4.74-.17,7.05-.46Z"/>
  <path class="cls-1" d="M945.07,1239.33v13.69c0,43.44-17.61,82.77-46.07,111.24-28.46,28.46-67.79,46.07-111.23,46.07-86.88,0-157.3-70.43-157.3-157.31v-309.81c0-44.47,18.46-84.63,48.13-113.24v-47.29c0-12.14-3.93-23.35-10.57-32.46-8.72-11.97-22.15-20.29-37.56-22.25-2.31-.3-4.66-.47-7.05-.47-15.24,0-29.03,6.18-39.01,16.16-9.99,9.99-16.16,23.78-16.16,39.02v226.76c-26.41,20.07-59.36,31.99-95.09,31.99-1.18,0-2.35-.02-3.52-.04-85.25-1.88-153.78-71.56-153.78-157.26v-309.82c0-23.23,5.04-45.29,14.08-65.14v-177.47c0-1.43.05-2.84.16-4.25.07-.93.17-1.86.28-2.78.12-.92.26-1.83.42-2.74,2.02-11.32,7.5-21.44,15.3-29.24.62-.62,1.26-1.23,1.92-1.83.65-.59,1.32-1.17,2-1.73l13.62-8.27c1.65-.69,3.34-1.31,5.07-1.85.43-.14.87-.26,1.3-.39.88-.25,1.76-.47,2.65-.68.89-.2,1.79-.39,2.69-.55.91-.16,1.82-.3,2.74-.42,2.3-.29,4.65-.44,7.03-.44,30.47,0,55.17,24.7,55.17,55.17v208.81c-15.51,9.77-25.82,27.03-25.82,46.72v302.87c0,30.47,24.7,55.17,55.17,55.17v-175.51c0-2.13.05-4.26.14-6.37,1.81-45.32,22.78-85.69,55.03-113.26,6.56-5.6,13.57-10.67,20.99-15.15,11.85-7.14,24.72-12.78,38.33-16.62,13.61-3.84,27.97-5.9,42.81-5.9,1.18,0,2.35.02,3.53.05,12.97.28,25.55,2.14,37.56,5.38,13.3,3.59,25.91,8.88,37.57,15.62,18.3,10.59,34.27,24.76,46.95,41.56,9.24,12.23,16.74,25.85,22.11,40.5,6.2,16.9,9.59,35.15,9.59,54.19v131.19c-2.95,0-5.85.23-8.67.68-.35.05-.7.11-1.05.18-.71.12-1.4.26-2.09.41l-5.1,1.37c-5.33,1.72-10.3,4.23-14.79,7.38-14.19,9.99-23.48,26.48-23.48,45.15v302.87c0,30.47,24.71,55.18,55.18,55.18,15.23,0,29.03-6.18,39.01-16.16,9.98-9.99,16.16-23.79,16.16-39.02v-215.11h61.05v-210.4c2.01,2.06,3.97,4.18,5.87,6.36v399.49h38.73Z"/>
  <path class="cls-5" d="M678.6,788.35v41.62c-29.67,28.61-48.13,68.77-48.13,113.24v197.05c-2.31.29-4.66.46-7.05.46-30.47,0-55.17-24.7-55.17-55.17v-76.11c37.8-28.73,62.22-74.17,62.22-125.31v-156.16c15.41,1.96,28.84,10.28,37.56,22.25v38.13h10.57Z"/>
  <path class="cls-7" d="M678.6,782.68v5.67h-10.57v-38.13c6.64,9.11,10.57,20.32,10.57,32.46Z"/>
  <path class="cls-6" d="M630.47,727.97v156.16c0,51.14-24.42,96.58-62.22,125.31v-226.76c0-15.24,6.17-29.03,16.16-39.02,9.98-9.98,23.77-16.16,39.01-16.16,2.39,0,4.74.17,7.05.47Z"/>
  <path class="cls-10" d="M906.34,631.24v608.09h147.91v-608.09h-147.91ZM1026.07,1166.55h-81v-223.34c0-6.52-.4-12.94-1.17-19.25v-262.2h82.17v504.79Z"/>
  <path class="cls-5" d="M1026.07,661.76v504.79h-81v-223.34c0-6.52-.4-12.94-1.17-19.25v-262.2h82.17Z"/>
  <path class="cls-3" d="M752.55,435.79v239.28c9.24,12.23,16.74,25.85,22.11,40.5,6.2,16.9,9.59,35.15,9.59,54.19v131.19l-8.67.68c-.35.05-.7.11-1.05.18-.71.12-1.4.26-2.09.41l-5.1,1.37c-5.33,1.72-10.3,4.23-14.79,7.38v132.91h147.92V435.79h-147.92ZM872.29,971.1h-82.17v-504.79h82.17v504.79Z"/>
  <path class="cls-1" d="M872.29,810.52v160.58h-32.87v-14.98c0-28.49-21.59-51.93-49.3-54.86v-115.33c8.67.13,17.17.95,25.45,2.42,20.57,3.67,39.75,11.34,56.72,22.17Z"/>
  <path class="cls-5" d="M784.25,900.95l-8.67.68c2.82-.45,5.72-.68,8.67-.68Z"/>
  <path class="cls-5" d="M839.42,1043.88v215.11c0,15.23-6.18,29.03-16.16,39.02-9.98,9.98-23.78,16.16-39.01,16.16-30.47,0-55.18-24.71-55.18-55.18v-59.78c33.77-28.85,55.18-71.74,55.18-119.63v-35.7h55.17Z"/>
  <path class="cls-5" d="M839.42,956.12v14.98h-49.3v-69.84c27.71,2.93,49.3,26.37,49.3,54.86Z"/>
  <path class="cls-11" d="M784.25,1043.88v35.7c0,47.89-21.41,90.78-55.18,119.63v-243.09c0-18.67,9.29-35.16,23.48-45.15v132.91h31.7Z"/>
  <path class="cls-5" d="M784.25,900.95l-8.67.68c2.82-.45,5.72-.68,8.67-.68Z"/>
  <path class="cls-4" d="M1067.16,804.69v608.09h147.91v-608.09h-147.91ZM1186.9,1339.99h-82.17v-504.78h82.17v504.78Z"/>
  <rect class="cls-5" x="1104.73" y="835.21" width="82.17" height="504.78"/>
</svg>