<?xml version="1.0" encoding="UTF-8"?>
<svg id="Layer_1" data-name="Layer 1" xmlns="http://www.w3.org/2000/svg" viewBox="0 0 1500 1500">
  <defs>
    <style>
      .cls-1 {
        fill: #121212;
      }

      .cls-1, .cls-2, .cls-3 {
        stroke: #231f20;
        stroke-linecap: round;
        stroke-miterlimit: 10;
      }

      .cls-2 {
        fill: #fff;
      }

      .cls-3 {
        fill: #464646;
      }
    </style>
  </defs>
  <rect class="cls-3" x="408.21" y="841.75" width="134.61" height="110.35"/>
  <rect class="cls-3" x="1095.11" y="603.83" width="118.98" height="89.22"/>
  <rect class="cls-3" x="408.21" y="679.75" width="134.61" height="91.57"/>
  <path class="cls-1" d="M542.81,572.53c0-107.19,86.9-194.09,194.09-194.09h162.56c92.4,0,169.71,64.57,189.29,151.04h123.78v-68.48c0-115.19-93.38-208.57-208.57-208.57h-387.19c-115.19,0-208.57,93.38-208.57,208.57v142.83h134.61v-31.3Z"/>
  <path class="cls-3" d="M1095.11,925.48v35.22c0,33.43-8.45,64.89-23.34,92.35h142.32v-127.57h-118.98Z"/>
  <rect class="cls-3" x="1095.11" y="771.31" width="118.98" height="89.22"/>
  <path class="cls-1" d="M899.46,1154.79h-162.56c-89.73,0-165.22-60.9-187.44-143.61h-141.25v53.22c0,115.19,93.38,208.57,208.57,208.57h387.19c98.06,0,180.3-67.68,202.59-158.87h-188.18c-32.85,25.5-74.11,40.7-118.91,40.7Z"/>
  <path class="cls-2" d="M829.25,860.53h265.86v-89.22h-265.86v-78.26h265.86v-89.22h-265.86v-74.35h261.07c-19.58-86.48-96.89-151.04-189.29-151.04h-162.56c-107.19,0-194.09,86.9-194.09,194.09v31.3h256.7v75.91h-256.7v91.57h242.61v70.43h-242.61v110.35h242.61v59.09h-235.96c22.22,82.71,97.71,143.61,187.44,143.61h162.56c44.81,0,86.06-15.19,118.91-40.7h-190.69v-61.04h242.53c14.88-27.46,23.34-58.92,23.34-92.35v-35.22h-265.86v-64.96Z"/>
  <rect class="cls-3" x="1214.09" y="529.48" width="61.24" height="74.35"/>
  <path class="cls-2" d="M1095.11,572.53v31.3h118.98v-74.35h-123.78c3.14,13.85,4.8,28.25,4.8,43.04Z"/>
  <path class="cls-3" d="M829.25,603.83h265.86v-31.3c0-14.79-1.66-29.2-4.8-43.04h-261.07v74.35Z"/>
  <rect class="cls-3" x="329.16" y="603.83" width="80.61" height="75.91"/>
  <rect class="cls-2" x="409.77" y="603.83" width="134.61" height="75.91"/>
  <rect class="cls-3" x="542.81" y="603.83" width="256.7" height="75.91"/>
  <rect class="cls-3" x="1214.09" y="693.05" width="75.71" height="78.26"/>
  <rect class="cls-2" x="1095.11" y="693.05" width="118.98" height="78.26"/>
  <rect class="cls-3" x="829.25" y="693.05" width="265.86" height="78.26"/>
  <rect class="cls-3" x="327.6" y="771.31" width="80.61" height="70.43"/>
  <rect class="cls-2" x="409.77" y="771.31" width="134.61" height="70.43"/>
  <rect class="cls-3" x="542.81" y="771.31" width="242.61" height="70.43"/>
  <rect class="cls-3" x="1214.09" y="860.53" width="84.72" height="64.96"/>
  <rect class="cls-2" x="1095.11" y="860.53" width="118.98" height="64.96"/>
  <rect class="cls-3" x="829.25" y="860.53" width="265.86" height="64.96"/>
  <rect class="cls-3" x="327.6" y="952.09" width="80.61" height="59.09"/>
  <path class="cls-2" d="M544.38,960.7v-8.61h-134.61v59.09h141.25c-4.32-16.1-6.64-33.02-6.64-50.48Z"/>
  <path class="cls-3" d="M785.42,952.09h-242.61v8.61c0,17.46,2.32,34.38,6.64,50.48h235.96v-59.09Z"/>
  <path class="cls-3" d="M1208.12,1114.09h90.7v-61.04h-84.72v11.35c0,17.13-2.08,33.77-5.97,49.7Z"/>
  <path class="cls-2" d="M1019.94,1114.09h188.18c3.89-15.93,5.97-32.57,5.97-49.7v-11.35h-142.32c-12.89,23.78-30.61,44.56-51.84,61.04Z"/>
  <path class="cls-3" d="M829.25,1114.09h190.69c21.23-16.48,38.95-37.26,51.84-61.04h-242.53v61.04Z"/>
</svg>