<?xml version="1.0" encoding="UTF-8"?>
<svg id="Layer_1" data-name="Layer 1" xmlns="http://www.w3.org/2000/svg" viewBox="0 0 1500 1500">
  <defs>
    <style>
      .cls-1 {
        fill: #323232;
      }

      .cls-1, .cls-2, .cls-3, .cls-4, .cls-5 {
        stroke: #231f20;
        stroke-linecap: round;
        stroke-miterlimit: 10;
      }

      .cls-2 {
        fill: #fff;
      }

      .cls-3 {
        fill: #2a2a2a;
      }

      .cls-4 {
        fill: #e6e6e6;
      }

      .cls-5 {
        fill: #1b1b1b;
      }
    </style>
  </defs>
  <g>
    <path class="cls-1" d="M1051.85,1242.06h-129.02v-251c-23.81,3.09-43.05-1.03-55.41-13.39-32.64-32.64-7.82-113.29,55.41-199.25v-73.66c-56.57,23.34-105.04,24.74-131.14-1.36-50.33-50.33,1.55-183.8,115.88-298.13,5.05-5.05,10.15-9.99,15.27-14.79v-109.92h129.02v17.8c31.37-15.57,60.95-25.03,86.53-27.52v-69.1H290.81v1180.96h847.57v-211.74c-29.54,20.95-59.32,35.86-86.53,43.8v27.3Z"/>
    <path class="cls-1" d="M1051.85,953.99c28.29-25.77,58.02-46.12,86.53-60.14v-32.55c-28.65,27.78-58.03,51.85-86.53,71.5v21.19Z"/>
    <path class="cls-1" d="M1051.85,622.65v22.07c29.65-23.67,59.07-43.01,86.53-57.23v-54.2c-14.59,18.29-30.82,36.49-48.57,54.24-12.47,12.47-25.17,24.2-37.96,35.13Z"/>
    <path class="cls-3" d="M1205.69,289.4c-15.52-15.52-38.96-21.31-67.31-18.55v262.45c79.39-99.52,109.82-201.38,67.31-243.89Z"/>
    <path class="cls-4" d="M1051.85,622.65c12.79-10.93,25.49-22.66,37.96-35.13,17.74-17.74,33.98-35.95,48.57-54.24v-262.45c-25.58,2.49-55.16,11.95-86.53,27.52v324.29Z"/>
    <path class="cls-4" d="M907.56,405.27c-114.32,114.32-166.2,247.8-115.88,298.13,26.1,26.1,74.58,24.7,131.14,1.36v-314.28c-5.12,4.81-10.21,9.74-15.27,14.79Z"/>
    <path class="cls-3" d="M1146.66,853.15c111.5-111.5,167.25-236.52,124.52-279.25-23.98-23.98-73.9-16.94-132.8,13.58v273.81c2.77-2.68,5.53-5.39,8.28-8.14Z"/>
    <path class="cls-4" d="M1051.85,932.8c28.51-19.65,57.88-43.72,86.53-71.5v-273.81c-27.46,14.23-56.88,33.57-86.53,57.23v288.08Z"/>
    <path class="cls-4" d="M867.41,977.67c12.36,12.36,31.6,16.48,55.41,13.39v-212.64c-63.23,85.96-88.05,166.61-55.41,199.25Z"/>
    <path class="cls-3" d="M1271.34,890.05c-26.84-26.84-77.62-23.42-132.96,3.79v277.12c18.54-13.15,36.99-28.66,54.66-46.33,86.4-86.4,121.46-191.42,78.31-234.57Z"/>
    <path class="cls-4" d="M1051.85,953.99v260.77c27.22-7.94,56.99-22.85,86.53-43.8v-277.12c-28.52,14.02-58.24,34.38-86.53,60.14Z"/>
    <path class="cls-4" d="M1051.85,280.56h-129.02v109.92c42.73-40.11,87.45-71.48,129.02-92.11v-17.8Z"/>
    <path class="cls-4" d="M922.82,991.06v251h129.02v-27.3c-39.21,11.45-73.12,8.44-93.39-11.83-43.15-43.15-8.09-148.18,78.31-234.57,4.97-4.97,10-9.75,15.08-14.37v-21.19c-48.03,33.11-93.58,53.67-129.02,58.26Z"/>
    <path class="cls-4" d="M1051.85,644.72v-22.07c-43.66,37.31-88.42,65.36-129.02,82.11v73.66c19.55-26.58,42.77-53.67,69.1-80,19.73-19.73,39.88-37.7,59.92-53.7Z"/>
    <path class="cls-5" d="M1051.85,298.36c-41.57,20.63-86.29,52-129.02,92.11v314.28c40.6-16.75,85.36-44.8,129.02-82.11v-324.29Z"/>
    <path class="cls-5" d="M1051.85,644.72c-20.04,16-40.19,33.98-59.92,53.7-26.33,26.33-49.55,53.42-69.1,80v212.64c35.44-4.59,81-25.16,129.02-58.26v-288.08Z"/>
    <path class="cls-5" d="M958.46,1202.93c20.26,20.26,54.17,23.27,93.39,11.83v-260.77c-5.08,4.62-10.11,9.4-15.08,14.37-86.4,86.4-121.46,191.42-78.31,234.57Z"/>
  </g>
  <path class="cls-2" d="M463.77,676.01c-84.45,45.72-75.75,193.22-75.13,201.91,8.27,116.21,91.11,214,119.74,204.26,27.12-9.23-13.91-108.35,37.57-154.96,61.32-55.52,216.48-2.61,218.35,37.57,1.93,41.54-160.35,60.81-157.3,100.96,2.31,30.44,99.27,67.11,152.61,32.87,62.89-40.38,49.09-169.04,11.74-248.87-57.24-122.33-213.98-224.4-307.57-173.74Z"/>
</svg>